<mxfile host="app.diagrams.net" modified="2021-11-23T04:10:09.828Z" agent="5.0 (Windows NT 10.0; Win64; x64) AppleWebKit/537.36 (KHTML, like Gecko) Chrome/96.0.4664.45 Safari/537.36" etag="UyFVTzAFp0KO_XpG2zoO" version="15.7.0" type="github">
  <diagram id="C5RBs43oDa-KdzZeNtuy" name="Page-1">
    <mxGraphModel dx="1848" dy="462" grid="1" gridSize="10" guides="1" tooltips="1" connect="1" arrows="1" fold="1" page="1" pageScale="1" pageWidth="827" pageHeight="1169" math="0" shadow="0">
      <root>
        <mxCell id="WIyWlLk6GJQsqaUBKTNV-0" />
        <mxCell id="WIyWlLk6GJQsqaUBKTNV-1" parent="WIyWlLk6GJQsqaUBKTNV-0" />
        <mxCell id="7P630K2ovM0ZVDKb6cNJ-116" value="Venda" style="swimlane;fontStyle=0;align=center;verticalAlign=top;childLayout=stackLayout;horizontal=1;startSize=26;horizontalStack=0;resizeParent=1;resizeLast=0;collapsible=1;marginBottom=0;rounded=0;shadow=0;strokeWidth=1;fontSize=13;" vertex="1" parent="WIyWlLk6GJQsqaUBKTNV-1">
          <mxGeometry x="130" y="130" width="160" height="138" as="geometry">
            <mxRectangle x="230" y="140" width="160" height="26" as="alternateBounds" />
          </mxGeometry>
        </mxCell>
        <mxCell id="7P630K2ovM0ZVDKb6cNJ-117" value="- codVenda" style="text;align=left;verticalAlign=top;spacingLeft=4;spacingRight=4;overflow=hidden;rotatable=0;points=[[0,0.5],[1,0.5]];portConstraint=eastwest;fontSize=13;" vertex="1" parent="7P630K2ovM0ZVDKb6cNJ-116">
          <mxGeometry y="26" width="160" height="26" as="geometry" />
        </mxCell>
        <mxCell id="7P630K2ovM0ZVDKb6cNJ-118" value="- dataVenda: date" style="text;align=left;verticalAlign=top;spacingLeft=4;spacingRight=4;overflow=hidden;rotatable=0;points=[[0,0.5],[1,0.5]];portConstraint=eastwest;rounded=0;shadow=0;html=0;fontSize=13;" vertex="1" parent="7P630K2ovM0ZVDKb6cNJ-116">
          <mxGeometry y="52" width="160" height="26" as="geometry" />
        </mxCell>
        <mxCell id="7P630K2ovM0ZVDKb6cNJ-119" value="- codCliente:" style="text;align=left;verticalAlign=top;spacingLeft=4;spacingRight=4;overflow=hidden;rotatable=0;points=[[0,0.5],[1,0.5]];portConstraint=eastwest;rounded=0;shadow=0;html=0;fontSize=13;" vertex="1" parent="7P630K2ovM0ZVDKb6cNJ-116">
          <mxGeometry y="78" width="160" height="26" as="geometry" />
        </mxCell>
        <mxCell id="7P630K2ovM0ZVDKb6cNJ-120" value="" style="line;html=1;strokeWidth=1;align=left;verticalAlign=middle;spacingTop=-1;spacingLeft=3;spacingRight=3;rotatable=0;labelPosition=right;points=[];portConstraint=eastwest;" vertex="1" parent="7P630K2ovM0ZVDKb6cNJ-116">
          <mxGeometry y="104" width="160" height="8" as="geometry" />
        </mxCell>
        <mxCell id="7P630K2ovM0ZVDKb6cNJ-121" value="+" style="text;align=left;verticalAlign=top;spacingLeft=4;spacingRight=4;overflow=hidden;rotatable=0;points=[[0,0.5],[1,0.5]];portConstraint=eastwest;" vertex="1" parent="7P630K2ovM0ZVDKb6cNJ-116">
          <mxGeometry y="112" width="160" height="26" as="geometry" />
        </mxCell>
        <mxCell id="7P630K2ovM0ZVDKb6cNJ-122" style="edgeStyle=orthogonalEdgeStyle;rounded=0;orthogonalLoop=1;jettySize=auto;html=1;exitX=0.5;exitY=1;exitDx=0;exitDy=0;entryX=0.5;entryY=0;entryDx=0;entryDy=0;" edge="1" parent="WIyWlLk6GJQsqaUBKTNV-1" source="7P630K2ovM0ZVDKb6cNJ-123" target="7P630K2ovM0ZVDKb6cNJ-161">
          <mxGeometry relative="1" as="geometry" />
        </mxCell>
        <mxCell id="7P630K2ovM0ZVDKb6cNJ-123" value="Produto" style="swimlane;fontStyle=0;align=center;verticalAlign=top;childLayout=stackLayout;horizontal=1;startSize=26;horizontalStack=0;resizeParent=1;resizeLast=0;collapsible=1;marginBottom=0;rounded=0;shadow=0;strokeWidth=1;fontSize=13;" vertex="1" parent="WIyWlLk6GJQsqaUBKTNV-1">
          <mxGeometry x="518" y="130" width="242" height="216" as="geometry">
            <mxRectangle x="550" y="140" width="160" height="26" as="alternateBounds" />
          </mxGeometry>
        </mxCell>
        <mxCell id="7P630K2ovM0ZVDKb6cNJ-124" value="- codProduto: int" style="text;align=left;verticalAlign=top;spacingLeft=4;spacingRight=4;overflow=hidden;rotatable=0;points=[[0,0.5],[1,0.5]];portConstraint=eastwest;fontSize=13;" vertex="1" parent="7P630K2ovM0ZVDKb6cNJ-123">
          <mxGeometry y="26" width="242" height="26" as="geometry" />
        </mxCell>
        <mxCell id="7P630K2ovM0ZVDKb6cNJ-125" value="- tipoProduto: double" style="text;align=left;verticalAlign=top;spacingLeft=4;spacingRight=4;overflow=hidden;rotatable=0;points=[[0,0.5],[1,0.5]];portConstraint=eastwest;rounded=0;shadow=0;html=0;fontSize=13;" vertex="1" parent="7P630K2ovM0ZVDKb6cNJ-123">
          <mxGeometry y="52" width="242" height="26" as="geometry" />
        </mxCell>
        <mxCell id="7P630K2ovM0ZVDKb6cNJ-126" value="- valorProduto: int" style="text;align=left;verticalAlign=top;spacingLeft=4;spacingRight=4;overflow=hidden;rotatable=0;points=[[0,0.5],[1,0.5]];portConstraint=eastwest;rounded=0;shadow=0;html=0;fontSize=13;" vertex="1" parent="7P630K2ovM0ZVDKb6cNJ-123">
          <mxGeometry y="78" width="242" height="26" as="geometry" />
        </mxCell>
        <mxCell id="7P630K2ovM0ZVDKb6cNJ-127" value="-" style="text;align=left;verticalAlign=top;spacingLeft=4;spacingRight=4;overflow=hidden;rotatable=0;points=[[0,0.5],[1,0.5]];portConstraint=eastwest;rounded=0;shadow=0;html=0;" vertex="1" parent="7P630K2ovM0ZVDKb6cNJ-123">
          <mxGeometry y="104" width="242" height="26" as="geometry" />
        </mxCell>
        <mxCell id="7P630K2ovM0ZVDKb6cNJ-128" value="-" style="text;align=left;verticalAlign=top;spacingLeft=4;spacingRight=4;overflow=hidden;rotatable=0;points=[[0,0.5],[1,0.5]];portConstraint=eastwest;rounded=0;shadow=0;html=0;" vertex="1" parent="7P630K2ovM0ZVDKb6cNJ-123">
          <mxGeometry y="130" width="242" height="26" as="geometry" />
        </mxCell>
        <mxCell id="7P630K2ovM0ZVDKb6cNJ-129" value="" style="line;html=1;strokeWidth=1;align=left;verticalAlign=middle;spacingTop=-1;spacingLeft=3;spacingRight=3;rotatable=0;labelPosition=right;points=[];portConstraint=eastwest;" vertex="1" parent="7P630K2ovM0ZVDKb6cNJ-123">
          <mxGeometry y="156" width="242" height="8" as="geometry" />
        </mxCell>
        <mxCell id="7P630K2ovM0ZVDKb6cNJ-130" value="+" style="text;align=left;verticalAlign=top;spacingLeft=4;spacingRight=4;overflow=hidden;rotatable=0;points=[[0,0.5],[1,0.5]];portConstraint=eastwest;" vertex="1" parent="7P630K2ovM0ZVDKb6cNJ-123">
          <mxGeometry y="164" width="242" height="26" as="geometry" />
        </mxCell>
        <mxCell id="7P630K2ovM0ZVDKb6cNJ-131" value="" style="endArrow=open;shadow=0;strokeWidth=1;rounded=0;endFill=1;edgeStyle=elbowEdgeStyle;elbow=vertical;" edge="1" parent="WIyWlLk6GJQsqaUBKTNV-1" source="7P630K2ovM0ZVDKb6cNJ-116" target="7P630K2ovM0ZVDKb6cNJ-123">
          <mxGeometry x="0.5" y="41" relative="1" as="geometry">
            <mxPoint x="390" y="202" as="sourcePoint" />
            <mxPoint x="550" y="202" as="targetPoint" />
            <mxPoint x="-40" y="32" as="offset" />
          </mxGeometry>
        </mxCell>
        <mxCell id="7P630K2ovM0ZVDKb6cNJ-135" value="Fornecedor" style="swimlane;fontStyle=0;align=center;verticalAlign=top;childLayout=stackLayout;horizontal=1;startSize=26;horizontalStack=0;resizeParent=1;resizeLast=0;collapsible=1;marginBottom=0;rounded=0;shadow=0;strokeWidth=1;fontSize=13;" vertex="1" parent="WIyWlLk6GJQsqaUBKTNV-1">
          <mxGeometry x="850" y="130" width="230" height="216" as="geometry">
            <mxRectangle x="550" y="140" width="160" height="26" as="alternateBounds" />
          </mxGeometry>
        </mxCell>
        <mxCell id="7P630K2ovM0ZVDKb6cNJ-136" value="- codFornecedor" style="text;align=left;verticalAlign=top;spacingLeft=4;spacingRight=4;overflow=hidden;rotatable=0;points=[[0,0.5],[1,0.5]];portConstraint=eastwest;fontSize=13;" vertex="1" parent="7P630K2ovM0ZVDKb6cNJ-135">
          <mxGeometry y="26" width="230" height="26" as="geometry" />
        </mxCell>
        <mxCell id="7P630K2ovM0ZVDKb6cNJ-137" value="- nome: string" style="text;align=left;verticalAlign=top;spacingLeft=4;spacingRight=4;overflow=hidden;rotatable=0;points=[[0,0.5],[1,0.5]];portConstraint=eastwest;rounded=0;shadow=0;html=0;fontSize=13;" vertex="1" parent="7P630K2ovM0ZVDKb6cNJ-135">
          <mxGeometry y="52" width="230" height="26" as="geometry" />
        </mxCell>
        <mxCell id="7P630K2ovM0ZVDKb6cNJ-138" value="- CNPJ: int" style="text;align=left;verticalAlign=top;spacingLeft=4;spacingRight=4;overflow=hidden;rotatable=0;points=[[0,0.5],[1,0.5]];portConstraint=eastwest;rounded=0;shadow=0;html=0;fontSize=13;" vertex="1" parent="7P630K2ovM0ZVDKb6cNJ-135">
          <mxGeometry y="78" width="230" height="26" as="geometry" />
        </mxCell>
        <mxCell id="7P630K2ovM0ZVDKb6cNJ-139" value="Â endereco: string" style="text;align=left;verticalAlign=top;spacingLeft=4;spacingRight=4;overflow=hidden;rotatable=0;points=[[0,0.5],[1,0.5]];portConstraint=eastwest;rounded=0;shadow=0;html=0;fontSize=13;" vertex="1" parent="7P630K2ovM0ZVDKb6cNJ-135">
          <mxGeometry y="104" width="230" height="26" as="geometry" />
        </mxCell>
        <mxCell id="7P630K2ovM0ZVDKb6cNJ-140" value="-" style="text;align=left;verticalAlign=top;spacingLeft=4;spacingRight=4;overflow=hidden;rotatable=0;points=[[0,0.5],[1,0.5]];portConstraint=eastwest;rounded=0;shadow=0;html=0;" vertex="1" parent="7P630K2ovM0ZVDKb6cNJ-135">
          <mxGeometry y="130" width="230" height="26" as="geometry" />
        </mxCell>
        <mxCell id="7P630K2ovM0ZVDKb6cNJ-141" value="" style="line;html=1;strokeWidth=1;align=left;verticalAlign=middle;spacingTop=-1;spacingLeft=3;spacingRight=3;rotatable=0;labelPosition=right;points=[];portConstraint=eastwest;" vertex="1" parent="7P630K2ovM0ZVDKb6cNJ-135">
          <mxGeometry y="156" width="230" height="8" as="geometry" />
        </mxCell>
        <mxCell id="7P630K2ovM0ZVDKb6cNJ-142" value="+" style="text;align=left;verticalAlign=top;spacingLeft=4;spacingRight=4;overflow=hidden;rotatable=0;points=[[0,0.5],[1,0.5]];portConstraint=eastwest;" vertex="1" parent="7P630K2ovM0ZVDKb6cNJ-135">
          <mxGeometry y="164" width="230" height="26" as="geometry" />
        </mxCell>
        <mxCell id="7P630K2ovM0ZVDKb6cNJ-143" value="+" style="text;align=left;verticalAlign=top;spacingLeft=4;spacingRight=4;overflow=hidden;rotatable=0;points=[[0,0.5],[1,0.5]];portConstraint=eastwest;" vertex="1" parent="7P630K2ovM0ZVDKb6cNJ-135">
          <mxGeometry y="190" width="230" height="26" as="geometry" />
        </mxCell>
        <mxCell id="7P630K2ovM0ZVDKb6cNJ-144" value="Endereco" style="swimlane;fontStyle=0;align=center;verticalAlign=top;childLayout=stackLayout;horizontal=1;startSize=26;horizontalStack=0;resizeParent=1;resizeLast=0;collapsible=1;marginBottom=0;rounded=0;shadow=0;strokeWidth=1;fontSize=13;" vertex="1" parent="WIyWlLk6GJQsqaUBKTNV-1">
          <mxGeometry x="1000" y="499" width="250" height="216" as="geometry">
            <mxRectangle x="550" y="140" width="160" height="26" as="alternateBounds" />
          </mxGeometry>
        </mxCell>
        <mxCell id="7P630K2ovM0ZVDKb6cNJ-145" value="- rua: string" style="text;align=left;verticalAlign=top;spacingLeft=4;spacingRight=4;overflow=hidden;rotatable=0;points=[[0,0.5],[1,0.5]];portConstraint=eastwest;fontSize=13;" vertex="1" parent="7P630K2ovM0ZVDKb6cNJ-144">
          <mxGeometry y="26" width="250" height="26" as="geometry" />
        </mxCell>
        <mxCell id="7P630K2ovM0ZVDKb6cNJ-146" value="- numero: int" style="text;align=left;verticalAlign=top;spacingLeft=4;spacingRight=4;overflow=hidden;rotatable=0;points=[[0,0.5],[1,0.5]];portConstraint=eastwest;rounded=0;shadow=0;html=0;fontSize=13;" vertex="1" parent="7P630K2ovM0ZVDKb6cNJ-144">
          <mxGeometry y="52" width="250" height="26" as="geometry" />
        </mxCell>
        <mxCell id="7P630K2ovM0ZVDKb6cNJ-147" value="- complemento: string" style="text;align=left;verticalAlign=top;spacingLeft=4;spacingRight=4;overflow=hidden;rotatable=0;points=[[0,0.5],[1,0.5]];portConstraint=eastwest;rounded=0;shadow=0;html=0;fontSize=13;" vertex="1" parent="7P630K2ovM0ZVDKb6cNJ-144">
          <mxGeometry y="78" width="250" height="26" as="geometry" />
        </mxCell>
        <mxCell id="7P630K2ovM0ZVDKb6cNJ-148" value="-" style="text;align=left;verticalAlign=top;spacingLeft=4;spacingRight=4;overflow=hidden;rotatable=0;points=[[0,0.5],[1,0.5]];portConstraint=eastwest;rounded=0;shadow=0;html=0;" vertex="1" parent="7P630K2ovM0ZVDKb6cNJ-144">
          <mxGeometry y="104" width="250" height="26" as="geometry" />
        </mxCell>
        <mxCell id="7P630K2ovM0ZVDKb6cNJ-149" value="-" style="text;align=left;verticalAlign=top;spacingLeft=4;spacingRight=4;overflow=hidden;rotatable=0;points=[[0,0.5],[1,0.5]];portConstraint=eastwest;rounded=0;shadow=0;html=0;" vertex="1" parent="7P630K2ovM0ZVDKb6cNJ-144">
          <mxGeometry y="130" width="250" height="26" as="geometry" />
        </mxCell>
        <mxCell id="7P630K2ovM0ZVDKb6cNJ-150" value="" style="line;html=1;strokeWidth=1;align=left;verticalAlign=middle;spacingTop=-1;spacingLeft=3;spacingRight=3;rotatable=0;labelPosition=right;points=[];portConstraint=eastwest;" vertex="1" parent="7P630K2ovM0ZVDKb6cNJ-144">
          <mxGeometry y="156" width="250" height="8" as="geometry" />
        </mxCell>
        <mxCell id="7P630K2ovM0ZVDKb6cNJ-151" value="+" style="text;align=left;verticalAlign=top;spacingLeft=4;spacingRight=4;overflow=hidden;rotatable=0;points=[[0,0.5],[1,0.5]];portConstraint=eastwest;" vertex="1" parent="7P630K2ovM0ZVDKb6cNJ-144">
          <mxGeometry y="164" width="250" height="26" as="geometry" />
        </mxCell>
        <mxCell id="7P630K2ovM0ZVDKb6cNJ-152" value="+" style="text;align=left;verticalAlign=top;spacingLeft=4;spacingRight=4;overflow=hidden;rotatable=0;points=[[0,0.5],[1,0.5]];portConstraint=eastwest;" vertex="1" parent="7P630K2ovM0ZVDKb6cNJ-144">
          <mxGeometry y="190" width="250" height="26" as="geometry" />
        </mxCell>
        <mxCell id="7P630K2ovM0ZVDKb6cNJ-153" value="Pedido" style="swimlane;fontStyle=0;align=center;verticalAlign=top;childLayout=stackLayout;horizontal=1;startSize=26;horizontalStack=0;resizeParent=1;resizeLast=0;collapsible=1;marginBottom=0;rounded=0;shadow=0;strokeWidth=1;fontSize=13;" vertex="1" parent="WIyWlLk6GJQsqaUBKTNV-1">
          <mxGeometry x="-8" y="420" width="228" height="216" as="geometry">
            <mxRectangle x="550" y="140" width="160" height="26" as="alternateBounds" />
          </mxGeometry>
        </mxCell>
        <mxCell id="7P630K2ovM0ZVDKb6cNJ-154" value="- comprovante" style="text;align=left;verticalAlign=top;spacingLeft=4;spacingRight=4;overflow=hidden;rotatable=0;points=[[0,0.5],[1,0.5]];portConstraint=eastwest;fontSize=13;" vertex="1" parent="7P630K2ovM0ZVDKb6cNJ-153">
          <mxGeometry y="26" width="228" height="26" as="geometry" />
        </mxCell>
        <mxCell id="7P630K2ovM0ZVDKb6cNJ-155" value="- confirmacaoEmail" style="text;align=left;verticalAlign=top;spacingLeft=4;spacingRight=4;overflow=hidden;rotatable=0;points=[[0,0.5],[1,0.5]];portConstraint=eastwest;rounded=0;shadow=0;html=0;fontSize=13;" vertex="1" parent="7P630K2ovM0ZVDKb6cNJ-153">
          <mxGeometry y="52" width="228" height="26" as="geometry" />
        </mxCell>
        <mxCell id="7P630K2ovM0ZVDKb6cNJ-156" value="- dataPedido: date" style="text;align=left;verticalAlign=top;spacingLeft=4;spacingRight=4;overflow=hidden;rotatable=0;points=[[0,0.5],[1,0.5]];portConstraint=eastwest;rounded=0;shadow=0;html=0;fontSize=13;" vertex="1" parent="7P630K2ovM0ZVDKb6cNJ-153">
          <mxGeometry y="78" width="228" height="26" as="geometry" />
        </mxCell>
        <mxCell id="7P630K2ovM0ZVDKb6cNJ-157" value="- listaProduto" style="text;align=left;verticalAlign=top;spacingLeft=4;spacingRight=4;overflow=hidden;rotatable=0;points=[[0,0.5],[1,0.5]];portConstraint=eastwest;rounded=0;shadow=0;html=0;fontSize=13;" vertex="1" parent="7P630K2ovM0ZVDKb6cNJ-153">
          <mxGeometry y="104" width="228" height="26" as="geometry" />
        </mxCell>
        <mxCell id="7P630K2ovM0ZVDKb6cNJ-158" value="- quantidade: int" style="text;align=left;verticalAlign=top;spacingLeft=4;spacingRight=4;overflow=hidden;rotatable=0;points=[[0,0.5],[1,0.5]];portConstraint=eastwest;rounded=0;shadow=0;html=0;fontSize=13;" vertex="1" parent="7P630K2ovM0ZVDKb6cNJ-153">
          <mxGeometry y="130" width="228" height="26" as="geometry" />
        </mxCell>
        <mxCell id="7P630K2ovM0ZVDKb6cNJ-159" value="" style="line;html=1;strokeWidth=1;align=left;verticalAlign=middle;spacingTop=-1;spacingLeft=3;spacingRight=3;rotatable=0;labelPosition=right;points=[];portConstraint=eastwest;" vertex="1" parent="7P630K2ovM0ZVDKb6cNJ-153">
          <mxGeometry y="156" width="228" height="8" as="geometry" />
        </mxCell>
        <mxCell id="7P630K2ovM0ZVDKb6cNJ-160" value="+" style="text;align=left;verticalAlign=top;spacingLeft=4;spacingRight=4;overflow=hidden;rotatable=0;points=[[0,0.5],[1,0.5]];portConstraint=eastwest;" vertex="1" parent="7P630K2ovM0ZVDKb6cNJ-153">
          <mxGeometry y="164" width="228" height="26" as="geometry" />
        </mxCell>
        <mxCell id="7P630K2ovM0ZVDKb6cNJ-161" value="Tranportadora" style="swimlane;fontStyle=0;align=center;verticalAlign=top;childLayout=stackLayout;horizontal=1;startSize=26;horizontalStack=0;resizeParent=1;resizeLast=0;collapsible=1;marginBottom=0;rounded=0;shadow=0;strokeWidth=1;fontSize=13;" vertex="1" parent="WIyWlLk6GJQsqaUBKTNV-1">
          <mxGeometry x="502.5" y="490" width="273" height="216" as="geometry">
            <mxRectangle x="550" y="140" width="160" height="26" as="alternateBounds" />
          </mxGeometry>
        </mxCell>
        <mxCell id="7P630K2ovM0ZVDKb6cNJ-162" value="- enderecoEntrega: string" style="text;align=left;verticalAlign=top;spacingLeft=4;spacingRight=4;overflow=hidden;rotatable=0;points=[[0,0.5],[1,0.5]];portConstraint=eastwest;fontSize=13;" vertex="1" parent="7P630K2ovM0ZVDKb6cNJ-161">
          <mxGeometry y="26" width="273" height="26" as="geometry" />
        </mxCell>
        <mxCell id="7P630K2ovM0ZVDKb6cNJ-163" value="- dataEntrega: date" style="text;align=left;verticalAlign=top;spacingLeft=4;spacingRight=4;overflow=hidden;rotatable=0;points=[[0,0.5],[1,0.5]];portConstraint=eastwest;rounded=0;shadow=0;html=0;fontSize=13;" vertex="1" parent="7P630K2ovM0ZVDKb6cNJ-161">
          <mxGeometry y="52" width="273" height="26" as="geometry" />
        </mxCell>
        <mxCell id="7P630K2ovM0ZVDKb6cNJ-164" value="-" style="text;align=left;verticalAlign=top;spacingLeft=4;spacingRight=4;overflow=hidden;rotatable=0;points=[[0,0.5],[1,0.5]];portConstraint=eastwest;rounded=0;shadow=0;html=0;" vertex="1" parent="7P630K2ovM0ZVDKb6cNJ-161">
          <mxGeometry y="78" width="273" height="26" as="geometry" />
        </mxCell>
        <mxCell id="7P630K2ovM0ZVDKb6cNJ-165" value="-" style="text;align=left;verticalAlign=top;spacingLeft=4;spacingRight=4;overflow=hidden;rotatable=0;points=[[0,0.5],[1,0.5]];portConstraint=eastwest;rounded=0;shadow=0;html=0;" vertex="1" parent="7P630K2ovM0ZVDKb6cNJ-161">
          <mxGeometry y="104" width="273" height="26" as="geometry" />
        </mxCell>
        <mxCell id="7P630K2ovM0ZVDKb6cNJ-166" value="-" style="text;align=left;verticalAlign=top;spacingLeft=4;spacingRight=4;overflow=hidden;rotatable=0;points=[[0,0.5],[1,0.5]];portConstraint=eastwest;rounded=0;shadow=0;html=0;" vertex="1" parent="7P630K2ovM0ZVDKb6cNJ-161">
          <mxGeometry y="130" width="273" height="26" as="geometry" />
        </mxCell>
        <mxCell id="7P630K2ovM0ZVDKb6cNJ-167" value="" style="line;html=1;strokeWidth=1;align=left;verticalAlign=middle;spacingTop=-1;spacingLeft=3;spacingRight=3;rotatable=0;labelPosition=right;points=[];portConstraint=eastwest;" vertex="1" parent="7P630K2ovM0ZVDKb6cNJ-161">
          <mxGeometry y="156" width="273" height="8" as="geometry" />
        </mxCell>
        <mxCell id="7P630K2ovM0ZVDKb6cNJ-168" value="+" style="text;align=left;verticalAlign=top;spacingLeft=4;spacingRight=4;overflow=hidden;rotatable=0;points=[[0,0.5],[1,0.5]];portConstraint=eastwest;" vertex="1" parent="7P630K2ovM0ZVDKb6cNJ-161">
          <mxGeometry y="164" width="273" height="26" as="geometry" />
        </mxCell>
        <mxCell id="7P630K2ovM0ZVDKb6cNJ-169" value="+" style="text;align=left;verticalAlign=top;spacingLeft=4;spacingRight=4;overflow=hidden;rotatable=0;points=[[0,0.5],[1,0.5]];portConstraint=eastwest;" vertex="1" parent="7P630K2ovM0ZVDKb6cNJ-161">
          <mxGeometry y="190" width="273" height="26" as="geometry" />
        </mxCell>
        <mxCell id="7P630K2ovM0ZVDKb6cNJ-170" style="edgeStyle=orthogonalEdgeStyle;rounded=0;orthogonalLoop=1;jettySize=auto;html=1;entryX=0.456;entryY=1.013;entryDx=0;entryDy=0;entryPerimeter=0;exitX=0.525;exitY=0.005;exitDx=0;exitDy=0;exitPerimeter=0;" edge="1" parent="WIyWlLk6GJQsqaUBKTNV-1" source="7P630K2ovM0ZVDKb6cNJ-153" target="7P630K2ovM0ZVDKb6cNJ-121">
          <mxGeometry relative="1" as="geometry">
            <mxPoint x="110" y="420" as="sourcePoint" />
          </mxGeometry>
        </mxCell>
        <mxCell id="7P630K2ovM0ZVDKb6cNJ-171" style="edgeStyle=orthogonalEdgeStyle;rounded=0;orthogonalLoop=1;jettySize=auto;html=1;entryX=0.5;entryY=1;entryDx=0;entryDy=0;" edge="1" parent="WIyWlLk6GJQsqaUBKTNV-1" source="7P630K2ovM0ZVDKb6cNJ-172" target="7P630K2ovM0ZVDKb6cNJ-153">
          <mxGeometry relative="1" as="geometry">
            <mxPoint x="106" y="650" as="targetPoint" />
            <Array as="points">
              <mxPoint x="106" y="770" />
              <mxPoint x="106" y="770" />
            </Array>
          </mxGeometry>
        </mxCell>
        <mxCell id="7P630K2ovM0ZVDKb6cNJ-172" value="Cliente" style="swimlane;fontStyle=0;align=center;verticalAlign=top;childLayout=stackLayout;horizontal=1;startSize=26;horizontalStack=0;resizeParent=1;resizeLast=0;collapsible=1;marginBottom=0;rounded=0;shadow=0;strokeWidth=1;fontSize=13;" vertex="1" parent="WIyWlLk6GJQsqaUBKTNV-1">
          <mxGeometry x="2" y="820" width="228" height="216" as="geometry">
            <mxRectangle x="550" y="140" width="160" height="26" as="alternateBounds" />
          </mxGeometry>
        </mxCell>
        <mxCell id="7P630K2ovM0ZVDKb6cNJ-173" value="- codCliente" style="text;align=left;verticalAlign=top;spacingLeft=4;spacingRight=4;overflow=hidden;rotatable=0;points=[[0,0.5],[1,0.5]];portConstraint=eastwest;fontSize=13;" vertex="1" parent="7P630K2ovM0ZVDKb6cNJ-172">
          <mxGeometry y="26" width="228" height="26" as="geometry" />
        </mxCell>
        <mxCell id="7P630K2ovM0ZVDKb6cNJ-174" value="- nome: string" style="text;align=left;verticalAlign=top;spacingLeft=4;spacingRight=4;overflow=hidden;rotatable=0;points=[[0,0.5],[1,0.5]];portConstraint=eastwest;rounded=0;shadow=0;html=0;fontSize=13;" vertex="1" parent="7P630K2ovM0ZVDKb6cNJ-172">
          <mxGeometry y="52" width="228" height="26" as="geometry" />
        </mxCell>
        <mxCell id="7P630K2ovM0ZVDKb6cNJ-175" value="- endereco: string" style="text;align=left;verticalAlign=top;spacingLeft=4;spacingRight=4;overflow=hidden;rotatable=0;points=[[0,0.5],[1,0.5]];portConstraint=eastwest;rounded=0;shadow=0;html=0;fontSize=13;" vertex="1" parent="7P630K2ovM0ZVDKb6cNJ-172">
          <mxGeometry y="78" width="228" height="26" as="geometry" />
        </mxCell>
        <mxCell id="7P630K2ovM0ZVDKb6cNJ-176" value="- cpf: int" style="text;align=left;verticalAlign=top;spacingLeft=4;spacingRight=4;overflow=hidden;rotatable=0;points=[[0,0.5],[1,0.5]];portConstraint=eastwest;rounded=0;shadow=0;html=0;fontSize=13;" vertex="1" parent="7P630K2ovM0ZVDKb6cNJ-172">
          <mxGeometry y="104" width="228" height="26" as="geometry" />
        </mxCell>
        <mxCell id="7P630K2ovM0ZVDKb6cNJ-177" value="- telefone" style="text;align=left;verticalAlign=top;spacingLeft=4;spacingRight=4;overflow=hidden;rotatable=0;points=[[0,0.5],[1,0.5]];portConstraint=eastwest;rounded=0;shadow=0;html=0;fontSize=13;" vertex="1" parent="7P630K2ovM0ZVDKb6cNJ-172">
          <mxGeometry y="130" width="228" height="26" as="geometry" />
        </mxCell>
        <mxCell id="7P630K2ovM0ZVDKb6cNJ-178" value="" style="line;html=1;strokeWidth=1;align=left;verticalAlign=middle;spacingTop=-1;spacingLeft=3;spacingRight=3;rotatable=0;labelPosition=right;points=[];portConstraint=eastwest;" vertex="1" parent="7P630K2ovM0ZVDKb6cNJ-172">
          <mxGeometry y="156" width="228" height="8" as="geometry" />
        </mxCell>
        <mxCell id="7P630K2ovM0ZVDKb6cNJ-179" value="+" style="text;align=left;verticalAlign=top;spacingLeft=4;spacingRight=4;overflow=hidden;rotatable=0;points=[[0,0.5],[1,0.5]];portConstraint=eastwest;" vertex="1" parent="7P630K2ovM0ZVDKb6cNJ-172">
          <mxGeometry y="164" width="228" height="26" as="geometry" />
        </mxCell>
        <mxCell id="7P630K2ovM0ZVDKb6cNJ-180" value="+" style="text;align=left;verticalAlign=top;spacingLeft=4;spacingRight=4;overflow=hidden;rotatable=0;points=[[0,0.5],[1,0.5]];portConstraint=eastwest;" vertex="1" parent="7P630K2ovM0ZVDKb6cNJ-172">
          <mxGeometry y="190" width="228" height="26" as="geometry" />
        </mxCell>
        <mxCell id="7P630K2ovM0ZVDKb6cNJ-181" style="edgeStyle=orthogonalEdgeStyle;rounded=0;orthogonalLoop=1;jettySize=auto;html=1;entryX=0;entryY=0.5;entryDx=0;entryDy=0;" edge="1" parent="WIyWlLk6GJQsqaUBKTNV-1" source="7P630K2ovM0ZVDKb6cNJ-126" target="7P630K2ovM0ZVDKb6cNJ-138">
          <mxGeometry relative="1" as="geometry" />
        </mxCell>
        <mxCell id="7P630K2ovM0ZVDKb6cNJ-182" style="edgeStyle=orthogonalEdgeStyle;rounded=0;orthogonalLoop=1;jettySize=auto;html=1;exitX=1;exitY=0.5;exitDx=0;exitDy=0;entryX=0;entryY=0.5;entryDx=0;entryDy=0;" edge="1" parent="WIyWlLk6GJQsqaUBKTNV-1" source="7P630K2ovM0ZVDKb6cNJ-165" target="7P630K2ovM0ZVDKb6cNJ-144">
          <mxGeometry relative="1" as="geometry" />
        </mxCell>
        <mxCell id="7P630K2ovM0ZVDKb6cNJ-183" value="+" style="text;align=left;verticalAlign=top;spacingLeft=4;spacingRight=4;overflow=hidden;rotatable=0;points=[[0,0.5],[1,0.5]];portConstraint=eastwest;" vertex="1" parent="WIyWlLk6GJQsqaUBKTNV-1">
          <mxGeometry x="-8" y="610" width="228" height="26" as="geometry" />
        </mxCell>
        <mxCell id="7P630K2ovM0ZVDKb6cNJ-184" value="&lt;b&gt;&lt;font style=&quot;font-size: 13px&quot;&gt;realiza&lt;/font&gt;&lt;/b&gt;" style="text;html=1;strokeColor=none;fillColor=none;align=center;verticalAlign=middle;whiteSpace=wrap;rounded=0;" vertex="1" parent="WIyWlLk6GJQsqaUBKTNV-1">
          <mxGeometry x="110" y="715" width="60" height="30" as="geometry" />
        </mxCell>
        <mxCell id="7P630K2ovM0ZVDKb6cNJ-185" value="&lt;b&gt;&lt;font style=&quot;font-size: 13px&quot;&gt;possui&lt;/font&gt;&lt;/b&gt;" style="text;html=1;strokeColor=none;fillColor=none;align=center;verticalAlign=middle;whiteSpace=wrap;rounded=0;" vertex="1" parent="WIyWlLk6GJQsqaUBKTNV-1">
          <mxGeometry x="370" y="170" width="60" height="30" as="geometry" />
        </mxCell>
        <mxCell id="7P630K2ovM0ZVDKb6cNJ-186" value="*" style="resizable=0;align=left;verticalAlign=bottom;labelBackgroundColor=none;fontSize=25;" connectable="0" vertex="1" parent="WIyWlLk6GJQsqaUBKTNV-1">
          <mxGeometry x="110" y="669.9964705882353" as="geometry" />
        </mxCell>
        <mxCell id="7P630K2ovM0ZVDKb6cNJ-187" value="&lt;span style=&quot;color: rgb(0 , 0 , 0) ; font-family: &amp;#34;helvetica&amp;#34; ; font-style: normal ; font-weight: 400 ; letter-spacing: normal ; text-align: left ; text-indent: 0px ; text-transform: none ; word-spacing: 0px ; background-color: rgb(248 , 249 , 250) ; display: inline ; float: none&quot;&gt;&lt;font style=&quot;font-size: 17px&quot;&gt;1&lt;/font&gt;&lt;/span&gt;" style="text;whiteSpace=wrap;html=1;fontSize=13;" vertex="1" parent="WIyWlLk6GJQsqaUBKTNV-1">
          <mxGeometry x="110" y="790" width="40" height="40" as="geometry" />
        </mxCell>
        <mxCell id="7P630K2ovM0ZVDKb6cNJ-188" value="&lt;span style=&quot;color: rgb(0 , 0 , 0) ; font-family: &amp;#34;helvetica&amp;#34; ; font-style: normal ; font-weight: 400 ; letter-spacing: normal ; text-align: left ; text-indent: 0px ; text-transform: none ; word-spacing: 0px ; background-color: rgb(248 , 249 , 250) ; display: inline ; float: none&quot;&gt;&lt;font style=&quot;font-size: 17px&quot;&gt;1&lt;/font&gt;&lt;/span&gt;" style="text;whiteSpace=wrap;html=1;fontSize=13;" vertex="1" parent="WIyWlLk6GJQsqaUBKTNV-1">
          <mxGeometry x="290" y="170" width="40" height="40" as="geometry" />
        </mxCell>
        <mxCell id="7P630K2ovM0ZVDKb6cNJ-189" value="*" style="resizable=0;align=left;verticalAlign=bottom;labelBackgroundColor=none;fontSize=25;" connectable="0" vertex="1" parent="WIyWlLk6GJQsqaUBKTNV-1">
          <mxGeometry x="502.5" y="199.9964705882353" as="geometry" />
        </mxCell>
      </root>
    </mxGraphModel>
  </diagram>
</mxfile>
